<svg xmlns="http://www.w3.org/2000/svg" width="282.524" height="66.894" viewBox="0 0 282.524 66.894">
  <g id="Group_1371" data-name="Group 1371" transform="translate(-214 -24.609)">
    <g id="logo" transform="translate(-12.806 -205.061)">
      <g id="Group_3" data-name="Group 3" transform="translate(364.796 236.315)">
        <g id="Group_1" data-name="Group 1">
          <path id="Path_1" data-name="Path 1" d="M1479.625,290h12.693c5.488,0,7.875,2.67,7.875,5.907a5.047,5.047,0,0,1-3.424,4.892,5.531,5.531,0,0,1,4.261,5.309c0,4.3-3.3,6.826-8.92,6.826h-12.486Zm11.53,8.978c2.491,0,3.285-.987,3.285-2.375,0-1.729-1.315-2.432-3.237-2.432h-6.1v4.808Zm-6.051,9.815h6.286c2.143,0,3.772-.629,3.772-2.9,0-1.831-1.245-2.775-3.667-2.775H1485.1Z" transform="translate(-1479.625 -290)" fill="#2b2b2b"/>
          <path id="Path_2" data-name="Path 2" d="M1732.124,303.257h-12.8v5.22h14.231l-.641,4.457H1713.76V290h19.056v4.457h-13.49V298.8h12.8Z" transform="translate(-1687.972 -290)" fill="#2b2b2b"/>
          <path id="Path_3" data-name="Path 3" d="M1921.311,307.729l-2,5.2h-5.725L1922.822,290h7.137l9.709,22.934h-6.019l-2.132-5.2Zm8.652-4.461c-2.135-5.256-3.174-7.935-3.723-9.687h-.032c-.513,1.715-1.731,5.2-3.455,9.687Z" transform="translate(-1865.787 -290)" fill="#2b2b2b"/>
          <path id="Path_4" data-name="Path 4" d="M2138.375,312.934,2129.029,290h6.158l4.038,10.919c1.522,4.131,2.168,6.351,2.567,7.814h.065c.358-1.325.677-2.3,2.827-8.23l3.9-10.5h5.953l-9.509,22.934Z" transform="translate(-2057.501 -290)" fill="#2b2b2b"/>
          <path id="Path_5" data-name="Path 5" d="M2403.786,303.257h-12.8v5.22h14.232l-.641,4.457h-19.156V290h19.056v4.457h-13.491V298.8h12.8Z" transform="translate(-2285.654 -290)" fill="#2b2b2b"/>
          <path id="Path_6" data-name="Path 6" d="M2608.472,304.1v8.838h-5.508V290h12.489c5.288,0,8.315,2.609,8.315,6.552a5.372,5.372,0,0,1-3.991,5.425c.939.37,3.4,1.271,3.4,5.391v1.145a18.7,18.7,0,0,0,.289,4.422h-5.713a14.623,14.623,0,0,1-.429-4.8v-.753c0-2.318-.85-3.286-4.193-3.286Zm0-4.174h5.736c2.7,0,3.873-.974,3.873-2.908,0-1.813-1.2-2.84-3.824-2.84h-5.784Z" transform="translate(-2479.235 -290)" fill="#2b2b2b"/>
        </g>
        <g id="Group_2" data-name="Group 2" transform="translate(0.435 34.282)">
          <path id="Path_7" data-name="Path 7" d="M1486.986,601.246q2.875,0,2.875,2.454c0,1.647-.97,2.477-2.886,2.477h-2.442v3.412h-.958v-8.343Zm-2.454,4.1h2.4a2.31,2.31,0,0,0,1.5-.409,1.536,1.536,0,0,0,.479-1.239,1.426,1.426,0,0,0-.491-1.215,2.228,2.228,0,0,0-1.484-.409h-2.4Z" transform="translate(-1483.574 -601.246)" fill="#30bfce"/>
          <path id="Path_8" data-name="Path 8" d="M1552.482,621.641a4.178,4.178,0,0,1,.7,2.466h-4.768a2.6,2.6,0,0,0,.549,1.578,1.713,1.713,0,0,0,1.356.561,1.875,1.875,0,0,0,1.2-.374,2.111,2.111,0,0,0,.608-.947h.935a2.729,2.729,0,0,1-.818,1.426,2.811,2.811,0,0,1-1.928.678,2.7,2.7,0,0,1-2.08-.853,3.747,3.747,0,0,1-.035-4.569,2.538,2.538,0,0,1,2.08-.947A2.576,2.576,0,0,1,1552.482,621.641Zm-3.471.327a2.331,2.331,0,0,0-.573,1.414h3.774c-.117-1.3-.76-1.94-1.9-1.94A1.691,1.691,0,0,0,1549.012,621.968Z" transform="translate(-1540.411 -618.521)" fill="#30bfce"/>
          <path id="Path_9" data-name="Path 9" d="M1612.031,621.185a2.408,2.408,0,0,1,.853,1.648h-.923a1.652,1.652,0,0,0-.561-1.052,1.851,1.851,0,0,0-1.169-.339,1.659,1.659,0,0,0-1.39.666,2.838,2.838,0,0,0-.491,1.753,2.778,2.778,0,0,0,.479,1.741,1.644,1.644,0,0,0,1.391.643,1.613,1.613,0,0,0,1.764-1.566h.935a2.907,2.907,0,0,1-.9,1.764,2.687,2.687,0,0,1-1.8.584,2.586,2.586,0,0,1-2.115-.911,3.376,3.376,0,0,1-.713-2.244,3.43,3.43,0,0,1,.713-2.255,2.574,2.574,0,0,1,2.126-.958A2.864,2.864,0,0,1,1612.031,621.185Z" transform="translate(-1593.754 -618.521)" fill="#30bfce"/>
          <path id="Path_10" data-name="Path 10" d="M1668.565,622.145v.783H1666.4v5.258h-.935v-5.258h-2.162v-.783Z" transform="translate(-1643.51 -619.843)" fill="#30bfce"/>
          <path id="Path_11" data-name="Path 11" d="M1722.62,621.337a2.409,2.409,0,0,1,.538,1.648v3.88h-.876v-1.017a2.767,2.767,0,0,1-.935.818,3.18,3.18,0,0,1-1.5.362,2.174,2.174,0,0,1-1.449-.456,1.523,1.523,0,0,1-.561-1.215,1.7,1.7,0,0,1,.83-1.554,3.87,3.87,0,0,1,2.1-.514l1.449-.023v-.315c0-1.017-.526-1.519-1.578-1.519a1.923,1.923,0,0,0-1.086.269,1.313,1.313,0,0,0-.608.865l-.923-.07a2.073,2.073,0,0,1,.935-1.414,3.2,3.2,0,0,1,1.741-.421A2.472,2.472,0,0,1,1722.62,621.337Zm-1.788,2.652c-1.355.023-2.033.467-2.033,1.344a.83.83,0,0,0,.339.689,1.482,1.482,0,0,0,.912.269,2.284,2.284,0,0,0,1.519-.561,1.613,1.613,0,0,0,.655-1.25v-.514Z" transform="translate(-1692.038 -618.521)" fill="#30bfce"/>
          <path id="Path_12" data-name="Path 12" d="M1782.3,622.145a2.236,2.236,0,0,1,1.309.327,1.321,1.321,0,0,1,.538,1.157,1.375,1.375,0,0,1-1.075,1.379c.865.257,1.3.748,1.3,1.449a1.558,1.558,0,0,1-.526,1.274,2.527,2.527,0,0,1-1.636.456h-2.933v-6.041Zm-2.092,2.559h1.788a1.782,1.782,0,0,0,.935-.222.8.8,0,0,0,.374-.7c0-.6-.409-.888-1.2-.888h-1.893Zm0,2.734h1.916a1.688,1.688,0,0,0,1.133-.3.952.952,0,0,0,.269-.724c0-.654-.514-.982-1.519-.982h-1.8Z" transform="translate(-1746.703 -619.843)" fill="#30bfce"/>
          <path id="Path_13" data-name="Path 13" d="M1841.508,621.629a3.507,3.507,0,0,1,.69,2.232,3.551,3.551,0,0,1-.678,2.209,2.42,2.42,0,0,1-2.021.958,2.187,2.187,0,0,1-2-1.262v3.412h-.935v-8.355h.876v.993a2.146,2.146,0,0,1,2.01-1.157A2.448,2.448,0,0,1,1841.508,621.629Zm-3.587.514a2.788,2.788,0,0,0-.456,1.659v.117a2.6,2.6,0,0,0,.514,1.694,1.586,1.586,0,0,0,1.321.643,1.756,1.756,0,0,0,1.484-.678,2.881,2.881,0,0,0,.456-1.718,3.046,3.046,0,0,0-.432-1.706,1.669,1.669,0,0,0-1.472-.724A1.612,1.612,0,0,0,1837.92,622.143Z" transform="translate(-1797.685 -618.521)" fill="#30bfce"/>
          <path id="Path_14" data-name="Path 14" d="M1901.4,621.337a2.408,2.408,0,0,1,.537,1.648v3.88h-.876v-1.017a2.768,2.768,0,0,1-.935.818,3.179,3.179,0,0,1-1.5.362,2.174,2.174,0,0,1-1.449-.456,1.524,1.524,0,0,1-.561-1.215,1.7,1.7,0,0,1,.83-1.554,3.87,3.87,0,0,1,2.1-.514l1.449-.023v-.315c0-1.017-.526-1.519-1.577-1.519a1.925,1.925,0,0,0-1.087.269,1.314,1.314,0,0,0-.608.865l-.923-.07a2.073,2.073,0,0,1,.935-1.414,3.2,3.2,0,0,1,1.741-.421A2.472,2.472,0,0,1,1901.4,621.337Zm-1.788,2.652c-1.356.023-2.033.467-2.033,1.344a.83.83,0,0,0,.339.689,1.482,1.482,0,0,0,.911.269,2.286,2.286,0,0,0,1.519-.561,1.614,1.614,0,0,0,.654-1.25v-.514Z" transform="translate(-1851.124 -618.521)" fill="#30bfce"/>
          <path id="Path_15" data-name="Path 15" d="M1958.984,622.145V627.4h3.05v-5.258h.935V627.4h.888v2.419h-.935v-1.636h-4.873v-6.041Z" transform="translate(-1905.788 -619.843)" fill="#30bfce"/>
          <path id="Path_16" data-name="Path 16" d="M2020.627,622.145v4.7l3.249-4.7h1v6.041h-.935v-4.7l-3.249,4.7h-1v-6.041Z" transform="translate(-1960.642 -619.843)" fill="#30bfce"/>
          <path id="Path_17" data-name="Path 17" d="M2082.871,628.186h-.935v-2.5h-1.6l-1.39,2.5h-1.11l1.519-2.629a1.874,1.874,0,0,1-.491-.2,1.517,1.517,0,0,1-.713-1.426,1.574,1.574,0,0,1,.6-1.332,2.724,2.724,0,0,1,1.706-.456h2.419ZM2079.1,623.9a.9.9,0,0,0,.3.76,1.732,1.732,0,0,0,1.052.257h1.484v-1.987h-1.391C2079.576,622.928,2079.1,623.243,2079.1,623.9Z" transform="translate(-2012.381 -619.843)" fill="#30bfce"/>
          <path id="Path_18" data-name="Path 18" d="M2175.076,622.145a2.236,2.236,0,0,1,1.309.327,1.322,1.322,0,0,1,.538,1.157,1.376,1.376,0,0,1-1.075,1.379c.865.257,1.3.748,1.3,1.449a1.558,1.558,0,0,1-.526,1.274,2.527,2.527,0,0,1-1.636.456h-2.933v-6.041Zm-2.092,2.559h1.788a1.782,1.782,0,0,0,.935-.222.8.8,0,0,0,.374-.7c0-.6-.409-.888-1.2-.888h-1.893Zm0,2.734h1.917a1.688,1.688,0,0,0,1.133-.3.952.952,0,0,0,.269-.724c0-.654-.514-.982-1.519-.982h-1.8Z" transform="translate(-2096.219 -619.843)" fill="#30bfce"/>
          <path id="Path_19" data-name="Path 19" d="M2232,621.337a2.408,2.408,0,0,1,.537,1.648v3.88h-.876v-1.017a2.763,2.763,0,0,1-.935.818,3.181,3.181,0,0,1-1.5.362,2.174,2.174,0,0,1-1.449-.456,1.523,1.523,0,0,1-.561-1.215,1.7,1.7,0,0,1,.83-1.554,3.87,3.87,0,0,1,2.1-.514l1.449-.023v-.315c0-1.017-.525-1.519-1.577-1.519a1.925,1.925,0,0,0-1.087.269,1.315,1.315,0,0,0-.608.865l-.923-.07a2.074,2.074,0,0,1,.935-1.414,3.2,3.2,0,0,1,1.741-.421A2.473,2.473,0,0,1,2232,621.337Zm-1.788,2.652c-1.356.023-2.033.467-2.033,1.344a.83.83,0,0,0,.339.689,1.481,1.481,0,0,0,.911.269,2.285,2.285,0,0,0,1.519-.561,1.613,1.613,0,0,0,.654-1.25v-.514Z" transform="translate(-2145.313 -618.521)" fill="#30bfce"/>
          <path id="Path_20" data-name="Path 20" d="M2289.587,622.145v2.489h3.248v-2.489h.935v6.041h-.935v-2.781h-3.248v2.781h-.935v-6.041Z" transform="translate(-2199.978 -619.843)" fill="#30bfce"/>
          <path id="Path_21" data-name="Path 21" d="M2349.215,622.145v2.489h3.249v-2.489h.935v6.041h-.935v-2.781h-3.249v2.781h-.935v-6.041Z" transform="translate(-2253.038 -619.843)" fill="#30bfce"/>
        </g>
      </g>
      <g id="Group_11" data-name="Group 11" transform="translate(226.806 229.67)">
        <g id="Group_5" data-name="Group 5" transform="translate(0 17.461)">
          <path id="Path_22" data-name="Path 22" d="M272.884,401.27c.111-.245-4.565-2.594-6.012-3.318-3.478-1.738-6.4-3.033-8.416-3.886-3.131-1.328-5.243-2.233-8.294-3.265a46.906,46.906,0,0,0-9.879-2.4,17.61,17.61,0,0,0-4.308-.124,10.538,10.538,0,0,0-6.687,2.84,7.989,7.989,0,0,0-2.48,5.654c.087,3.191,2.468,5.243,3.517,6.148a13.664,13.664,0,0,0,5.106,2.587,46.161,46.161,0,0,0,10.321,2.082c6.439.616,9.658.924,12.854.963,17.65.218,37.882-2.908,46.33-4.213,1.333-.206,8.908-1.386,13.024-2.086.489-.083,2.494-.425,5.212-.865,1.285-.208,2.174-.347,2.57-.41,1.946-.312,15.244-2.463,18.31-2.124a6.628,6.628,0,0,0,.829.062h0s-1.145-.226-1.84-.333a17.6,17.6,0,0,0-2.439-.181c-2.45-.057-4.658.041-5.5.082-1.369.067-2.326.136-4.239.274-1.972.143-4.97.378-8.64.732-2.153.208-3.316.339-5.241.543-6.625.7-7.276.679-15.171,1.474-5.2.523-5.8.614-10.234,1.055-4.554.453-4.653.448-6.9.68-3.2.33-3.132.361-5.609.6-1.986.191-3.555.319-4.543.4-1.673.134-3.334.268-5.327.389-2.7.165-4.9.3-7.774.306-2.24.006-3.81-.069-6.8-.211-2.5-.119-4.4-.209-6.981-.469-3.229-.326-5.067-.664-5.923-.832a23.058,23.058,0,0,1-3.9-.977c-2.6-.978-6.934-3.434-6.88-6.447a3.5,3.5,0,0,1,.409-1.539s1.142-2.192,5.2-2.655c.735-.084,1.527-.083,1.527-.083a46.558,46.558,0,0,1,6.181.466,51.065,51.065,0,0,1,5.572,1.142,91.945,91.945,0,0,1,9.062,2.831C268.305,399.571,272.777,401.506,272.884,401.27Z" transform="translate(-226.806 -388.2)" fill="#30bfce"/>
          <g id="Group_4" data-name="Group 4" transform="translate(4.315 6.106)">
            <path id="Path_23" data-name="Path 23" d="M477.076,672.338a61.369,61.369,0,0,0,10.206-8.217,75.9,75.9,0,0,1-86.06.7,61.949,61.949,0,0,0,10.48,8.141l-1.013,10.2,5.988-7.4h0a59.913,59.913,0,0,0,55.386-.489l6.089,7.242Z" transform="translate(-386.325 -639.836)" fill="#2b2b2b"/>
            <path id="Path_24" data-name="Path 24" d="M322.62,451.895c.038-.346-2.313-.713-8.281-2.773-1.924-.664-2.2-.8-3.966-1.423a96.166,96.166,0,0,0-9.5-2.913c-5.822-1.336-14.494-1.933-15.4.623a1.494,1.494,0,0,0-.054.732c.3,2.35,5.064,3.491,7.883,4.167a38.655,38.655,0,0,0,5.477.9c4.415.474,7.364.6,7.364.6C319.431,452.56,322.573,452.32,322.62,451.895Z" transform="translate(-283.258 -443.637)" fill="#2b2b2b"/>
            <path id="Path_25" data-name="Path 25" d="M375.949,520.267a19,19,0,0,0,2.736-1.171,51.642,51.642,0,0,0,7.224-4.124c.173-.128.5-.448,1.16-1.091a1.761,1.761,0,0,0,.493-.7,1.108,1.108,0,0,0,.013-.833,1.2,1.2,0,0,0-.5-.479,3.405,3.405,0,0,0-.853-.407,7.26,7.26,0,0,0-1.5-.307c-1.551-.13-2.541-.14-2.541-.14a60.436,60.436,0,0,0-6.589.2c-1.7.143-2.956.318-5,.61-2.751.394-4.856.767-6.8,1.114-2.066.368-3.735.692-4.328.807-2.067.4-2.416.5-4.482.894-1.485.286-2.563.479-4.178.769-2.247.4-3.37.6-4.373.755-1.849.276-1.885.221-3.766.505-1.683.255-1.751.314-3.826.648-1.166.188-2.183.332-4.216.619-2.207.312-3.311.468-4.411.6-1.755.218-3.016.344-5.391.581-1.356.135-2.8.28-4.644.44-.951.083-3.792.325-7.646.561-3.1.189-5.962.364-9.8.45-2.484.055-5.1.114-8.634,0-1.285-.042-4.749-.176-9.274-.639a78.667,78.667,0,0,1-8.4-1.163,54.468,54.468,0,0,1-7.018-1.944,32.472,32.472,0,0,1-3.334-1.437c-.016-.012-.078-.054-.088-.043a7.508,7.508,0,0,0,1.091,1.16,11.6,11.6,0,0,0,1.015.86,13.013,13.013,0,0,0,1.642,1.005c.767.423,1.232.68,1.935,1.027,1.328.655,2.387,1.08,3.231,1.417.6.238,1.088.434,1.765.671a39.223,39.223,0,0,0,3.988,1.13c1.464.357,2.6.582,3.041.667s1.669.319,3.927.635c2.783.39,4.941.6,5.544.657,1.717.163,3.921.369,6.786.455.723.022,3.043.085,7.414-.087,1.71-.067,7.052-.3,14.309-1.1,2.98-.327,5.217-.631,8.072-1.02,3.471-.472,5.539-.756,8.334-1.245,2.155-.377,3.909-.739,7.418-1.461q3.008-.619,6.48-1.383c2.8-.619,4.2-.929,5.34-1.222,1.845-.474,2.357-.62,4.8-1.214.8-.193,1.916-.465,3.4-.8.43-.1,1.2-.266,2.736-.6,1.151-.253,1.484-.325,2.351-.518,1.56-.346,1.406-.316,2.145-.478,1.782-.392,2.749-.6,4.035-.829.966-.17,1.695-.274,1.887-.3,0,0,2.032-.289,4.052-.386.176-.008.526-.01,1.227-.007a5.4,5.4,0,0,1,.829.062,1.656,1.656,0,0,1,.717.25.972.972,0,0,1,.41.423.932.932,0,0,1-.054.732c-.291.718-.975,1.086-2.819,2.293-.08.052-.175.116-.311.2-.336.207-.68.39-1.431.8-.45.24-1.107.595-1.892,1.037A34.482,34.482,0,0,0,375.949,520.267Z" transform="translate(-265.979 -503.578)" fill="#2b2b2b"/>
          </g>
        </g>
        <g id="Group_10" data-name="Group 10" transform="translate(34.485 0)">
          <g id="Group_6" data-name="Group 6" transform="translate(0 6.269)">
            <path id="Path_26" data-name="Path 26" d="M586.067,286.587a54.564,54.564,0,0,1-26.4,6.976,48.58,48.58,0,0,1-19.775-4.137q.358.178.717.35c.828.4,1.68.772,2.535,1.12a48.735,48.735,0,0,0,18.474,3.574,52.859,52.859,0,0,0,25.093-6.442Z" transform="translate(-539.892 -286.587)" fill="#30bfce"/>
            <path id="Path_27" data-name="Path 27" d="M588.344,329.963c-.9.472-1.8.916-2.689,1.321a52.5,52.5,0,0,1-21.939,4.792,51.4,51.4,0,0,1-21.878-4.887c-.578-.274-1.16-.563-1.728-.86l-.056-.029a51.281,51.281,0,0,0,48.974,1.2Z" transform="translate(-540.036 -325.185)" fill="#30bfce"/>
            <path id="Path_28" data-name="Path 28" d="M542.134,355.419q.308.2.619.393a53.918,53.918,0,0,0,28.634,8.36,49.5,49.5,0,0,0,18.585-3.56c.587-.236,1.175-.487,1.749-.745q.434-.2.865-.4c.174-.082.356-.17.549-.265l-.725-1.626c-.41.205-.82.4-1.224.592q-.444.207-.891.4a51.1,51.1,0,0,1-20.84,4.381,53.675,53.675,0,0,1-27.037-7.37Z" transform="translate(-541.887 -347.838)" fill="#30bfce"/>
          </g>
          <g id="Group_9" data-name="Group 9" transform="translate(0.065)">
            <g id="Group_7" data-name="Group 7" transform="translate(47.303)">
              <path id="Path_29" data-name="Path 29" d="M1007.092,232.248l-1.761.786,6.731,15.081,1.761-.786h0a6.441,6.441,0,0,1,3.894-8.757c4.146-1.337,8.765-1.616,12.057-4.867a2.323,2.323,0,0,0-1.8-4.031c-4.618.28-7.91,3.531-11.674,5.725a6.441,6.441,0,0,1-9.118-2.95Zm19.725-1.341a1.443,1.443,0,1,1-.73,1.905A1.443,1.443,0,0,1,1026.818,230.908Z" transform="translate(-1001.434 -229.67)" fill="#2b2b2b"/>
              <rect id="Rectangle_1" data-name="Rectangle 1" width="3.493" height="16.515" transform="translate(9.92 18.761) rotate(155.949)" fill="#2b2b2b"/>
            </g>
            <g id="Group_8" data-name="Group 8" transform="translate(0 8.635)">
              <path id="Path_30" data-name="Path 30" d="M587.648,308.066a53.866,53.866,0,0,1-25.505,6.527,49.742,49.742,0,0,1-18.855-3.649c-.872-.355-1.743-.74-2.589-1.144l-.217-.1q.238.127.476.252c.557.291,1.127.574,1.693.842a50.386,50.386,0,0,0,21.446,4.79,51.494,51.494,0,0,0,21.519-4.7c.891-.406,1.8-.852,2.7-1.327Z" transform="translate(-540.482 -308.066)" fill="#2b2b2b"/>
              <path id="Path_31" data-name="Path 31" d="M542.4,344.889q.38.231.763.454a52.663,52.663,0,0,0,26.528,7.232,50.1,50.1,0,0,0,20.431-4.294q.438-.194.873-.4c.409-.191.824-.392,1.238-.6l-.706-1.581a52.3,52.3,0,0,1-49.128-.814Z" transform="translate(-542.19 -340.833)" fill="#2b2b2b"/>
              <path id="Path_32" data-name="Path 32" d="M543.089,366.89a55.436,55.436,0,0,0,31.067,9.79A48.854,48.854,0,0,0,595.142,372l-.745-1.67c-.183.09-.358.174-.529.255q-.44.209-.883.408c-.586.263-1.186.519-1.785.76a50.51,50.51,0,0,1-18.963,3.634A54.922,54.922,0,0,1,543.089,366.89Z" transform="translate(-542.802 -360.411)" fill="#2b2b2b"/>
            </g>
          </g>
        </g>
      </g>
    </g>
  </g>
</svg>
