<svg xmlns="http://www.w3.org/2000/svg" width="264" height="62.508" viewBox="0 0 264 62.508">
  <g id="Group_1371" data-name="Group 1371" transform="translate(-290 -5999.694)">
    <g id="Group_51" data-name="Group 51" transform="translate(781.112 6771.009)">
      <g id="Group_42" data-name="Group 42" transform="translate(-362.169 -765.106)">
        <g id="Group_40" data-name="Group 40" transform="translate(0 0)">
          <path id="Path_73" data-name="Path 73" d="M761.707-710.985h11.861c5.128,0,7.359,2.5,7.359,5.52a4.716,4.716,0,0,1-3.2,4.571,5.168,5.168,0,0,1,3.982,4.961c0,4.021-3.084,6.379-8.335,6.379H761.707Zm10.774,8.389c2.328,0,3.07-.922,3.07-2.22,0-1.616-1.229-2.273-3.025-2.273h-5.7v4.492Zm-5.654,9.171H772.7c2,0,3.525-.588,3.525-2.709,0-1.711-1.163-2.593-3.426-2.593h-5.973Z" transform="translate(-761.707 710.985)" fill="#30bfce"/>
          <path id="Path_74" data-name="Path 74" d="M1013-698.6h-11.96v4.878h13.3l-.6,4.165h-17.9v-21.43h17.807v4.165h-12.606v4.059H1013Z" transform="translate(-971.744 710.985)" fill="#30bfce"/>
          <path id="Path_75" data-name="Path 75" d="M1202.886-694.418l-1.87,4.864h-5.349l8.631-21.43h6.669l9.073,21.43h-5.624l-1.992-4.864Zm8.084-4.168c-1.994-4.911-2.965-7.415-3.479-9.052h-.03c-.48,1.6-1.617,4.862-3.229,9.052Z" transform="translate(-1151.003 710.985)" fill="#30bfce"/>
          <path id="Path_76" data-name="Path 76" d="M1419.844-689.555l-8.733-21.43h5.755l3.773,10.2c1.423,3.86,2.026,5.934,2.4,7.3h.061c.335-1.238.633-2.145,2.642-7.69l3.648-9.814h5.563l-8.885,21.43Z" transform="translate(-1344.273 710.985)" fill="#30bfce"/>
          <path id="Path_77" data-name="Path 77" d="M1684.664-698.6H1672.7v4.878H1686l-.6,4.165h-17.9v-21.43h17.807v4.165H1672.7v4.059h11.96Z" transform="translate(-1574.277 710.985)" fill="#30bfce"/>
          <path id="Path_78" data-name="Path 78" d="M1890.193-697.813v8.259h-5.147v-21.43h11.67c4.942,0,7.77,2.438,7.77,6.122a5.019,5.019,0,0,1-3.729,5.069c.877.346,3.178,1.188,3.178,5.038v1.07a17.473,17.473,0,0,0,.27,4.132h-5.338a13.664,13.664,0,0,1-.4-4.485v-.7c0-2.166-.795-3.07-3.918-3.07Zm0-3.9h5.359c2.525,0,3.619-.91,3.619-2.717,0-1.694-1.12-2.654-3.574-2.654h-5.4Z" transform="translate(-1769.43 710.985)" fill="#30bfce"/>
        </g>
        <g id="Group_41" data-name="Group 41" transform="translate(0.406 32.034)">
          <path id="Path_79" data-name="Path 79" d="M768.844-399.739q2.686,0,2.686,2.293c0,1.54-.906,2.315-2.7,2.315h-2.282v3.188h-.9v-7.8Zm-2.293,3.833h2.238a2.158,2.158,0,0,0,1.4-.382,1.435,1.435,0,0,0,.448-1.157,1.333,1.333,0,0,0-.459-1.136,2.082,2.082,0,0,0-1.387-.382h-2.238Z" transform="translate(-765.656 399.739)" fill="#30bfce"/>
          <path id="Path_80" data-name="Path 80" d="M834.234-379.409a3.9,3.9,0,0,1,.655,2.3h-4.455a2.429,2.429,0,0,0,.513,1.474,1.6,1.6,0,0,0,1.267.524,1.752,1.752,0,0,0,1.125-.349,1.973,1.973,0,0,0,.568-.885h.874a2.549,2.549,0,0,1-.764,1.332,2.627,2.627,0,0,1-1.8.633,2.526,2.526,0,0,1-1.944-.8,3.081,3.081,0,0,1-.743-2.184,3.08,3.08,0,0,1,.71-2.086,2.372,2.372,0,0,1,1.944-.884A2.407,2.407,0,0,1,834.234-379.409Zm-3.243.306a2.177,2.177,0,0,0-.535,1.321h3.527c-.109-1.212-.71-1.813-1.78-1.813A1.58,1.58,0,0,0,830.991-379.1Z" transform="translate(-822.954 382.324)" fill="#30bfce"/>
          <path id="Path_81" data-name="Path 81" d="M893.809-379.835a2.25,2.25,0,0,1,.8,1.539h-.863a1.543,1.543,0,0,0-.524-.983,1.729,1.729,0,0,0-1.092-.317,1.551,1.551,0,0,0-1.3.622,2.652,2.652,0,0,0-.459,1.638,2.6,2.6,0,0,0,.448,1.627,1.536,1.536,0,0,0,1.3.6,1.507,1.507,0,0,0,1.649-1.463h.873a2.718,2.718,0,0,1-.841,1.649,2.511,2.511,0,0,1-1.682.546,2.417,2.417,0,0,1-1.976-.852,3.156,3.156,0,0,1-.666-2.1,3.206,3.206,0,0,1,.666-2.107,2.406,2.406,0,0,1,1.987-.9A2.677,2.677,0,0,1,893.809-379.835Z" transform="translate(-876.73 382.324)" fill="#30bfce"/>
          <path id="Path_82" data-name="Path 82" d="M950.3-378.84v.732h-2.02v4.914h-.873v-4.914h-2.02v-.732Z" transform="translate(-926.891 380.991)" fill="#30bfce"/>
          <path id="Path_83" data-name="Path 83" d="M1004.389-379.693a2.251,2.251,0,0,1,.5,1.54v3.625h-.819v-.95a2.587,2.587,0,0,1-.874.764,2.972,2.972,0,0,1-1.4.339,2.031,2.031,0,0,1-1.354-.426,1.423,1.423,0,0,1-.524-1.135,1.592,1.592,0,0,1,.775-1.452,3.617,3.617,0,0,1,1.965-.48l1.354-.022v-.295c0-.95-.491-1.419-1.474-1.419a1.8,1.8,0,0,0-1.016.251,1.227,1.227,0,0,0-.568.808l-.863-.065a1.938,1.938,0,0,1,.874-1.321,2.991,2.991,0,0,1,1.627-.393A2.31,2.31,0,0,1,1004.389-379.693Zm-1.671,2.479c-1.267.022-1.9.437-1.9,1.256a.776.776,0,0,0,.317.644,1.384,1.384,0,0,0,.852.251,2.136,2.136,0,0,0,1.42-.524,1.508,1.508,0,0,0,.611-1.168v-.48Z" transform="translate(-975.812 382.324)" fill="#30bfce"/>
          <path id="Path_84" data-name="Path 84" d="M1064.182-378.84a2.089,2.089,0,0,1,1.223.306,1.235,1.235,0,0,1,.5,1.081,1.285,1.285,0,0,1-1,1.289c.808.24,1.212.7,1.212,1.354a1.457,1.457,0,0,1-.491,1.19,2.363,2.363,0,0,1-1.529.426h-2.741v-5.645Zm-1.954,2.391h1.671a1.665,1.665,0,0,0,.873-.208.745.745,0,0,0,.349-.655c0-.557-.382-.83-1.125-.83h-1.769Zm0,2.555h1.791a1.577,1.577,0,0,0,1.059-.284.889.889,0,0,0,.251-.677c0-.611-.48-.917-1.42-.917h-1.681Z" transform="translate(-1030.92 380.991)" fill="#30bfce"/>
          <path id="Path_85" data-name="Path 85" d="M1123.267-379.42a3.278,3.278,0,0,1,.644,2.086,3.319,3.319,0,0,1-.633,2.064,2.262,2.262,0,0,1-1.889.9,2.044,2.044,0,0,1-1.867-1.179v3.188h-.874v-7.807h.819v.928a2,2,0,0,1,1.878-1.081A2.288,2.288,0,0,1,1123.267-379.42Zm-3.352.48a2.606,2.606,0,0,0-.426,1.551v.109a2.424,2.424,0,0,0,.48,1.583,1.482,1.482,0,0,0,1.234.6,1.641,1.641,0,0,0,1.387-.633,2.692,2.692,0,0,0,.426-1.605,2.846,2.846,0,0,0-.4-1.594,1.56,1.56,0,0,0-1.376-.677A1.507,1.507,0,0,0,1119.914-378.939Z" transform="translate(-1082.317 382.324)" fill="#30bfce"/>
          <path id="Path_86" data-name="Path 86" d="M1183.166-379.693a2.251,2.251,0,0,1,.5,1.54v3.625h-.819v-.95a2.588,2.588,0,0,1-.874.764,2.972,2.972,0,0,1-1.4.339,2.031,2.031,0,0,1-1.354-.426,1.423,1.423,0,0,1-.524-1.135,1.591,1.591,0,0,1,.775-1.452,3.617,3.617,0,0,1,1.966-.48l1.354-.022v-.295c0-.95-.491-1.419-1.474-1.419a1.8,1.8,0,0,0-1.016.251,1.228,1.228,0,0,0-.568.808l-.863-.065a1.937,1.937,0,0,1,.874-1.321,2.99,2.99,0,0,1,1.627-.393A2.309,2.309,0,0,1,1183.166-379.693Zm-1.671,2.479c-1.266.022-1.9.437-1.9,1.256a.776.776,0,0,0,.317.644,1.384,1.384,0,0,0,.852.251,2.136,2.136,0,0,0,1.42-.524,1.508,1.508,0,0,0,.611-1.168v-.48Z" transform="translate(-1136.188 382.324)" fill="#30bfce"/>
          <path id="Path_87" data-name="Path 87" d="M1241-378.84v4.914h2.85v-4.914h.874v4.914h.83v2.26h-.874v-1.529h-4.553v-5.645Z" transform="translate(-1191.297 380.991)" fill="#30bfce"/>
          <path id="Path_88" data-name="Path 88" d="M1302.648-378.84v4.389l3.036-4.389h.939v5.645h-.874v-4.389l-3.035,4.389h-.939v-5.645Z" transform="translate(-1246.595 380.991)" fill="#30bfce"/>
          <path id="Path_89" data-name="Path 89" d="M1364.623-373.195h-.874v-2.337h-1.5l-1.3,2.337h-1.037l1.419-2.457a1.759,1.759,0,0,1-.459-.186,1.418,1.418,0,0,1-.666-1.332,1.471,1.471,0,0,1,.557-1.245,2.546,2.546,0,0,1,1.594-.426h2.26ZM1361.1-377.2a.841.841,0,0,0,.284.71,1.617,1.617,0,0,0,.983.24h1.387v-1.856h-1.3C1361.544-378.108,1361.1-377.814,1361.1-377.2Z" transform="translate(-1298.754 380.991)" fill="#30bfce"/>
          <path id="Path_90" data-name="Path 90" d="M1456.96-378.84a2.09,2.09,0,0,1,1.223.306,1.235,1.235,0,0,1,.5,1.081,1.285,1.285,0,0,1-1,1.289c.808.24,1.212.7,1.212,1.354a1.456,1.456,0,0,1-.491,1.19,2.363,2.363,0,0,1-1.529.426h-2.74v-5.645Zm-1.955,2.391h1.671a1.665,1.665,0,0,0,.874-.208.745.745,0,0,0,.349-.655c0-.557-.382-.83-1.125-.83h-1.769Zm0,2.555h1.791a1.577,1.577,0,0,0,1.059-.284.889.889,0,0,0,.251-.677c0-.611-.48-.917-1.419-.917h-1.682Z" transform="translate(-1383.272 380.991)" fill="#30bfce"/>
          <path id="Path_91" data-name="Path 91" d="M1513.769-379.693a2.25,2.25,0,0,1,.5,1.54v3.625h-.819v-.95a2.587,2.587,0,0,1-.874.764,2.971,2.971,0,0,1-1.4.339,2.031,2.031,0,0,1-1.354-.426,1.424,1.424,0,0,1-.524-1.135,1.592,1.592,0,0,1,.775-1.452,3.616,3.616,0,0,1,1.965-.48l1.354-.022v-.295c0-.95-.491-1.419-1.474-1.419a1.8,1.8,0,0,0-1.016.251,1.228,1.228,0,0,0-.568.808l-.862-.065a1.937,1.937,0,0,1,.874-1.321,2.991,2.991,0,0,1,1.627-.393A2.309,2.309,0,0,1,1513.769-379.693Zm-1.671,2.479c-1.267.022-1.9.437-1.9,1.256a.776.776,0,0,0,.317.644,1.384,1.384,0,0,0,.852.251,2.135,2.135,0,0,0,1.42-.524,1.508,1.508,0,0,0,.611-1.168v-.48Z" transform="translate(-1432.765 382.324)" fill="#30bfce"/>
          <path id="Path_92" data-name="Path 92" d="M1571.607-378.84v2.326h3.036v-2.326h.874v5.645h-.874v-2.6h-3.036v2.6h-.873v-5.645Z" transform="translate(-1487.874 380.991)" fill="#30bfce"/>
          <path id="Path_93" data-name="Path 93" d="M1631.236-378.84v2.326h3.036v-2.326h.874v5.645h-.874v-2.6h-3.036v2.6h-.874v-5.645Z" transform="translate(-1541.364 380.991)" fill="#30bfce"/>
        </g>
      </g>
      <g id="Group_50" data-name="Group 50" transform="translate(-491.112 -771.315)">
        <g id="Group_44" data-name="Group 44" transform="translate(0 16.316)">
          <path id="Path_94" data-name="Path 94" d="M-448.055-600.572c.1-.229-4.265-2.424-5.618-3.1-3.25-1.624-5.985-2.834-7.864-3.631-2.925-1.241-4.9-2.087-7.75-3.051a43.829,43.829,0,0,0-9.231-2.244,16.468,16.468,0,0,0-4.026-.115,9.847,9.847,0,0,0-6.248,2.653,7.466,7.466,0,0,0-2.318,5.283c.081,2.982,2.306,4.9,3.287,5.745a12.768,12.768,0,0,0,4.771,2.417,43.128,43.128,0,0,0,9.645,1.946c6.017.576,9.025.863,12.011.9,16.493.2,35.4-2.717,43.293-3.937,1.246-.192,8.324-1.3,12.17-1.949.457-.078,2.331-.4,4.87-.808,1.2-.194,2.031-.324,2.4-.383,1.819-.291,14.244-2.3,17.109-1.984a6.2,6.2,0,0,0,.775.057h0s-1.07-.211-1.719-.311a16.441,16.441,0,0,0-2.28-.169c-2.29-.054-4.353.038-5.14.077-1.279.063-2.173.127-3.961.256-1.843.134-4.645.353-8.073.684-2.011.194-3.1.317-4.9.507-6.191.657-6.8.635-14.176,1.377-4.858.489-5.42.574-9.563.986-4.256.424-4.348.419-6.446.635-2.986.308-2.926.337-5.241.56-1.855.179-3.322.3-4.245.372-1.563.126-3.115.25-4.978.364-2.524.154-4.583.279-7.264.286-2.093.005-3.56-.064-6.358-.2-2.341-.111-4.113-.2-6.523-.439-3.017-.3-4.734-.621-5.535-.778a21.549,21.549,0,0,1-3.646-.912c-2.43-.914-6.479-3.209-6.429-6.024a3.265,3.265,0,0,1,.382-1.438s1.067-2.048,4.86-2.481c.686-.078,1.427-.078,1.427-.078a43.507,43.507,0,0,1,5.776.436,47.732,47.732,0,0,1,5.206,1.068,85.92,85.92,0,0,1,8.468,2.646C-452.334-602.159-448.155-600.351-448.055-600.572Z" transform="translate(491.112 612.785)" fill="#30bfce"/>
          <g id="Group_43" data-name="Group 43" transform="translate(4.032 5.706)">
            <path id="Path_95" data-name="Path 95" d="M-245.816-329.186a57.349,57.349,0,0,0,9.536-7.678,70.758,70.758,0,0,1-40.469,12.831A70.569,70.569,0,0,1-316.7-336.206,57.882,57.882,0,0,0-306.9-328.6l-.946,9.528,5.6-6.916h0a56.137,56.137,0,0,0,25.577,6.113,56.172,56.172,0,0,0,26.178-6.57l5.69,6.767Z" transform="translate(330.616 359.557)" fill="#30bfce"/>
            <path id="Path_96" data-name="Path 96" d="M-397.738-549.632c.036-.323-2.161-.666-7.738-2.592-1.8-.621-2.052-.751-3.706-1.33a89.869,89.869,0,0,0-8.875-2.722c-5.44-1.248-13.544-1.806-14.392.582a1.4,1.4,0,0,0-.051.684c.281,2.2,4.732,3.262,7.367,3.893a36.125,36.125,0,0,0,5.118.838c4.125.442,6.881.557,6.881.557C-400.718-549.01-397.782-549.235-397.738-549.632Z" transform="translate(434.52 557.348)" fill="#30bfce"/>
            <path id="Path_97" data-name="Path 97" d="M-349.179-481.326a17.758,17.758,0,0,0,2.557-1.094,48.25,48.25,0,0,0,6.75-3.854c.162-.119.47-.419,1.084-1.02a1.645,1.645,0,0,0,.461-.653,1.035,1.035,0,0,0,.012-.779,1.124,1.124,0,0,0-.471-.448,3.182,3.182,0,0,0-.8-.38,6.782,6.782,0,0,0-1.4-.287c-1.449-.121-2.374-.13-2.374-.13a56.451,56.451,0,0,0-6.157.185c-1.585.134-2.762.3-4.672.57-2.571.368-4.537.716-6.358,1.041-1.931.344-3.49.646-4.044.754-1.931.376-2.258.464-4.188.835-1.388.267-2.395.448-3.9.719-2.1.377-3.149.565-4.086.7-1.728.258-1.762.206-3.519.472-1.573.238-1.637.293-3.575.606-1.09.176-2.04.31-3.94.579-2.063.291-3.094.437-4.122.565-1.64.2-2.819.321-5.037.543-1.267.126-2.619.262-4.34.411-.889.077-3.543.3-7.144.524-2.9.177-5.571.341-9.154.421-2.321.052-4.763.106-8.068,0-1.2-.04-4.437-.165-8.666-.6a73.511,73.511,0,0,1-7.85-1.087,50.894,50.894,0,0,1-6.558-1.816,30.344,30.344,0,0,1-3.115-1.343c-.015-.012-.073-.051-.083-.04a7.013,7.013,0,0,0,1.02,1.084,10.852,10.852,0,0,0,.949.8,12.161,12.161,0,0,0,1.535.939c.717.4,1.152.635,1.808.959,1.241.612,2.23,1.01,3.019,1.324.556.222,1.017.406,1.65.627a36.637,36.637,0,0,0,3.727,1.056c1.368.333,2.429.544,2.842.624s1.559.3,3.669.593c2.6.364,4.617.56,5.18.614,1.6.152,3.664.345,6.341.425.676.02,2.844.079,6.928-.082,1.6-.063,6.589-.281,13.37-1.024,2.785-.305,4.875-.59,7.543-.953,3.244-.441,5.176-.706,7.788-1.164,2.014-.352,3.653-.69,6.932-1.365q2.811-.578,6.056-1.292c2.616-.579,3.924-.868,4.99-1.142,1.724-.443,2.2-.58,4.485-1.134.744-.181,1.791-.434,3.173-.746.4-.091,1.12-.249,2.557-.565,1.075-.237,1.387-.3,2.2-.484,1.458-.323,1.314-.3,2-.447,1.665-.366,2.569-.563,3.771-.774.9-.159,1.584-.256,1.763-.282,0,0,1.9-.27,3.786-.361.165-.008.492-.009,1.147-.007a5.047,5.047,0,0,1,.775.058,1.548,1.548,0,0,1,.67.233.908.908,0,0,1,.383.4.871.871,0,0,1-.051.684c-.272.671-.911,1.015-2.635,2.142-.075.049-.163.108-.291.187-.314.194-.635.365-1.337.747-.421.225-1.034.556-1.768.969A32.22,32.22,0,0,0-349.179-481.326Z" transform="translate(451.939 496.921)" fill="#30bfce"/>
          </g>
        </g>
        <g id="Group_49" data-name="Group 49" transform="translate(32.224 0)">
          <g id="Group_45" data-name="Group 45" transform="translate(0 5.858)">
            <path id="Path_98" data-name="Path 98" d="M-134.878-714.4a50.986,50.986,0,0,1-24.67,6.519,45.394,45.394,0,0,1-18.478-3.866c.223.111.447.22.67.327.774.369,1.57.721,2.368,1.046a45.54,45.54,0,0,0,17.263,3.34,49.394,49.394,0,0,0,23.447-6.02Z" transform="translate(178.026 714.398)" fill="#30bfce"/>
            <path id="Path_99" data-name="Path 99" d="M-132.74-671.022c-.839.441-1.682.856-2.513,1.235a49.053,49.053,0,0,1-20.5,4.477,48.028,48.028,0,0,1-20.444-4.567c-.541-.256-1.084-.526-1.615-.8l-.052-.027a47.613,47.613,0,0,0,23.927,6.392,48,48,0,0,0,21.836-5.273Z" transform="translate(177.881 675.486)" fill="#30bfce"/>
            <path id="Path_100" data-name="Path 100" d="M-175.784-645.566q.288.186.578.368a50.384,50.384,0,0,0,26.757,7.812,46.255,46.255,0,0,0,17.367-3.327c.548-.221,1.1-.455,1.634-.7q.406-.182.808-.373c.163-.077.333-.159.513-.248l-.678-1.519c-.383.192-.766.377-1.143.553q-.415.193-.833.378a47.753,47.753,0,0,1-19.474,4.094,50.156,50.156,0,0,1-25.265-6.886Z" transform="translate(176.015 652.65)" fill="#30bfce"/>
          </g>
          <g id="Group_48" data-name="Group 48" transform="translate(0.061)">
            <g id="Group_46" data-name="Group 46" transform="translate(44.202)">
              <path id="Path_101" data-name="Path 101" d="M289.06-768.906l-1.646.734,6.289,14.092,1.646-.735h0A6.019,6.019,0,0,1,298.987-763c3.874-1.25,8.19-1.51,11.267-4.548a2.2,2.2,0,0,0,.524-2.492,2.2,2.2,0,0,0-2.2-1.274c-4.315.261-7.391,3.3-10.909,5.349a6.019,6.019,0,0,1-8.52-2.756Zm18.432-1.253a1.348,1.348,0,0,1,1.78.682,1.348,1.348,0,0,1-.682,1.781,1.348,1.348,0,0,1-1.781-.682A1.348,1.348,0,0,1,307.492-770.159Z" transform="translate(-283.772 771.315)" fill="#30bfce"/>
              <rect id="Rectangle_17" data-name="Rectangle 17" width="3.264" height="15.432" transform="translate(9.27 17.531) rotate(155.949)" fill="#30bfce"/>
            </g>
            <g id="Group_47" data-name="Group 47" transform="translate(0 8.069)">
              <path id="Path_102" data-name="Path 102" d="M-133.362-692.919a50.335,50.335,0,0,1-23.833,6.1,46.481,46.481,0,0,1-17.619-3.41c-.815-.332-1.629-.691-2.419-1.069l-.2-.1q.222.119.445.235c.52.272,1.053.536,1.582.787a47.083,47.083,0,0,0,20.04,4.476,48.117,48.117,0,0,0,20.108-4.392c.832-.38,1.678-.8,2.519-1.24Z" transform="translate(177.436 692.919)" fill="#30bfce"/>
              <path id="Path_103" data-name="Path 103" d="M-175.516-656.1q.355.216.713.425a49.209,49.209,0,0,0,24.788,6.757,46.814,46.814,0,0,0,19.091-4.013q.41-.181.816-.371c.382-.178.77-.366,1.157-.56l-.659-1.478a48.949,48.949,0,0,1-22.221,5.353A48.557,48.557,0,0,1-175.516-656.1Z" transform="translate(175.714 659.886)" fill="#30bfce"/>
              <path id="Path_104" data-name="Path 104" d="M-174.829-634.095a51.8,51.8,0,0,0,29.03,9.148,45.651,45.651,0,0,0,19.61-4.369l-.7-1.561c-.171.084-.335.163-.494.238q-.411.195-.825.381c-.547.246-1.109.485-1.668.711a47.2,47.2,0,0,1-17.719,3.4A51.321,51.321,0,0,1-174.829-634.095Z" transform="translate(175.097 640.149)" fill="#30bfce"/>
            </g>
          </g>
        </g>
      </g>
    </g>
  </g>
</svg>
