<svg xmlns="http://www.w3.org/2000/svg" width="45" height="45" viewBox="0 0 45 45">
  <g id="Group_1361" data-name="Group 1361" transform="translate(-2121 -3920.393)">
    <circle id="Ellipse_28" data-name="Ellipse 28" cx="22.5" cy="22.5" r="22.5" transform="translate(2121 3920.393)" fill="#30bfce"/>
    <path id="check" d="M12.131,24.533a1.617,1.617,0,0,1-2.287,0L.711,15.4a2.425,2.425,0,0,1,0-3.431l1.144-1.144a2.426,2.426,0,0,1,3.431,0l5.7,5.7L26.4,1.117a2.426,2.426,0,0,1,3.431,0l1.144,1.144a2.425,2.425,0,0,1,0,3.431Zm0,0" transform="translate(2127.79 3929.994)" fill="#fff"/>
  </g>
</svg>
